<svg xmlns="http://www.w3.org/2000/svg" xmlns:bx="https://boxy-svg.com" width="1499" height="2048">
  <g transform="matrix(1, 0, 0, 1, -37, 40)">
    <path label="Camada 1" d="M 1330.357 908.675 C 1329.64 908.631 1329.101 908.656 1328.379 908.61 C 1321.395 908.159 1314.162 907.591 1306.853 906.896 C 1299.545 906.2 1292.161 905.379 1284.767 904.39 C 1277.374 903.401 1269.985 902.26 1262.747 900.929 C 1255.508 899.598 1248.394 898.069 1241.55 896.347 C 1234.707 894.625 1228.145 892.706 1221.936 890.545 C 1218.832 889.465 1215.804 888.316 1212.904 887.117 C 1210.004 885.917 1207.231 884.65 1204.564 883.326 C 1201.897 882.001 1199.352 880.628 1196.949 879.172 C 1194.546 877.717 1192.268 876.183 1190.158 874.59 C 1188.049 872.998 1186.109 871.348 1184.324 869.613 C 1182.538 867.877 1180.91 866.059 1179.478 864.173 L 1175.753 858.273 C 1174.705 856.232 1173.849 854.112 1173.215 851.911 C 1172.58 849.709 1172.153 847.423 1171.962 845.054 C 1171.771 842.684 1171.811 840.246 1172.094 837.703 C 1172.376 835.16 1172.495 832.652 1172.423 830.22 C 1172.352 827.788 1172.101 825.423 1171.698 823.099 C 1171.295 820.776 1170.729 818.525 1170.017 816.309 C 1169.305 814.092 1168.445 811.926 1167.446 809.815 C 1166.447 807.703 1165.314 805.626 1164.05 803.617 C 1162.786 801.608 1161.403 799.658 1159.897 797.75 C 1158.39 795.841 1156.745 793.988 1155.018 792.179 C 1153.291 790.369 1151.471 788.584 1149.546 786.871 C 1147.621 785.158 1145.614 783.512 1143.513 781.894 C 1141.413 780.275 1139.208 778.705 1136.953 777.18 C 1136.018 776.546 1134.946 776.017 1133.987 775.399 C 1099.977 850.97 1045.76 897.776 934.32 918.532 C 916.069 921.931 922.092 944.179 934.32 944.179 C 1065.899 944.179 1217.266 943.56 1330.357 908.676 L 1330.357 908.675 Z" id="imagebot_6" style="stroke-width: 0; fill: rgb(95, 16, 16);" bx:origin="0.5 0.5"/>
    <path label="Camada 1" d="M 1327.259 558.788 C 1244.073 558.788 1174.891 618.78 1160.655 697.866 C 1152.984 726.497 1144.4 752.261 1133.987 775.399 C 1134.946 776.017 1136.018 776.546 1136.953 777.179 C 1139.208 778.705 1141.413 780.275 1143.513 781.893 C 1145.614 783.511 1147.621 785.158 1149.546 786.871 C 1151.471 788.584 1153.291 790.368 1155.018 792.178 C 1156.745 793.988 1158.39 795.841 1159.897 797.749 C 1161.403 799.657 1162.786 801.608 1164.05 803.617 C 1165.314 805.626 1166.447 807.702 1167.446 809.814 C 1168.445 811.926 1169.305 814.092 1170.017 816.308 C 1170.729 818.525 1171.295 820.776 1171.698 823.099 C 1172.101 825.422 1172.352 827.787 1172.423 830.219 C 1172.495 832.651 1172.376 835.159 1172.094 837.702 C 1171.811 840.245 1171.771 842.684 1171.962 845.053 C 1172.153 847.423 1172.58 849.708 1173.215 851.91 C 1173.849 854.112 1174.705 856.232 1175.753 858.272 C 1176.801 860.313 1178.046 862.288 1179.478 864.173 C 1180.91 866.058 1182.538 867.876 1184.324 869.612 C 1186.109 871.348 1188.049 872.997 1190.158 874.59 C 1192.268 876.182 1194.546 877.716 1196.949 879.172 C 1199.352 880.627 1201.897 882.001 1204.564 883.325 C 1207.231 884.65 1210.004 885.917 1212.904 887.116 C 1215.804 888.316 1218.832 889.464 1221.936 890.545 C 1228.145 892.706 1234.707 894.625 1241.55 896.346 C 1248.394 898.068 1255.508 899.597 1262.747 900.928 C 1269.985 902.26 1277.374 903.401 1284.767 904.39 C 1292.161 905.379 1299.545 906.2 1306.853 906.895 C 1314.162 907.59 1321.395 908.159 1328.379 908.609 C 1329.101 908.656 1329.64 908.631 1330.357 908.675 C 1395.592 888.552 1448.136 857.089 1476.688 807.638 C 1489.336 783.923 1496.499 756.815 1496.499 728.061 C 1496.499 634.572 1420.747 558.788 1327.259 558.788 L 1327.259 558.788 Z" id="imagebot_5" style="stroke-width: 0; fill: rgb(255, 60, 60);" bx:origin="0.5 0.5"/>
  </g>
  <ellipse style="fill: rgb(255, 255, 255);" transform="matrix(1, 0, 0, 0.999999, -1160.732544, -67.237569)" cx="1950.905" cy="1069.774" rx="102.679" ry="100.291"/>
  <g transform="matrix(1, 0, 0, 1, -50, -9)">
    <path label="Camada 1" d="M 1278.319 1275.33 C 1277.602 1275.286 1277.063 1275.311 1276.341 1275.265 C 1269.357 1274.814 1262.124 1274.246 1254.815 1273.551 C 1247.507 1272.855 1240.123 1272.034 1232.729 1271.045 C 1225.336 1270.056 1217.947 1268.915 1210.709 1267.584 C 1203.47 1266.253 1196.356 1264.724 1189.512 1263.002 C 1182.669 1261.28 1176.107 1259.361 1169.898 1257.2 C 1166.794 1256.12 1163.766 1254.971 1160.866 1253.772 C 1157.966 1252.572 1155.193 1251.305 1152.526 1249.981 C 1149.859 1248.656 1147.314 1247.283 1144.911 1245.827 C 1142.508 1244.372 1140.23 1242.838 1138.12 1241.245 C 1136.011 1239.653 1134.071 1238.003 1132.286 1236.268 C 1130.5 1234.532 1128.872 1232.714 1127.44 1230.828 L 1123.715 1224.928 C 1122.667 1222.887 1121.811 1220.767 1121.177 1218.566 C 1120.542 1216.364 1120.115 1214.078 1119.924 1211.709 C 1119.733 1209.339 1119.773 1206.901 1120.056 1204.358 C 1120.338 1201.815 1120.457 1199.307 1120.385 1196.875 C 1120.314 1194.443 1120.063 1192.078 1119.66 1189.754 C 1119.257 1187.431 1118.691 1185.18 1117.979 1182.964 C 1117.267 1180.747 1116.407 1178.581 1115.408 1176.47 C 1114.409 1174.358 1113.276 1172.281 1112.012 1170.272 C 1110.748 1168.263 1109.365 1166.313 1107.859 1164.405 C 1106.352 1162.496 1104.707 1160.643 1102.98 1158.834 C 1101.253 1157.024 1099.433 1155.239 1097.508 1153.526 C 1095.583 1151.813 1093.576 1150.167 1091.475 1148.549 C 1089.375 1146.93 1087.17 1145.36 1084.915 1143.835 C 1083.98 1143.201 1082.908 1142.672 1081.949 1142.054 C 1047.939 1217.625 993.722 1264.431 882.282 1285.187 C 864.031 1288.586 870.054 1310.834 882.282 1310.834 C 1013.861 1310.834 1165.228 1310.215 1278.319 1275.331 L 1278.319 1275.33 Z" id="path-1" style="stroke-width: 0; fill: rgb(36, 46, 82);" transform="matrix(0.48481, 0.874619, -0.874619, 0.48481, 1624.529975, -305.019133)" bx:origin="0.5 0.5"/>
    <path label="Camada 1" d="M 1286.541 1158.34 C 1203.355 1158.34 1134.173 1218.332 1119.937 1297.418 C 1112.266 1326.049 1103.682 1351.813 1093.269 1374.951 C 1094.228 1375.569 1095.3 1376.098 1096.235 1376.731 C 1098.49 1378.257 1100.695 1379.827 1102.795 1381.445 C 1104.896 1383.063 1106.903 1384.71 1108.828 1386.423 C 1110.753 1388.136 1112.573 1389.92 1114.3 1391.73 C 1116.027 1393.54 1117.672 1395.393 1119.179 1397.301 C 1120.685 1399.209 1122.068 1401.16 1123.332 1403.169 C 1124.596 1405.178 1125.729 1407.254 1126.728 1409.366 C 1127.727 1411.478 1128.587 1413.644 1129.299 1415.86 C 1130.011 1418.077 1130.577 1420.328 1130.98 1422.651 C 1131.383 1424.974 1131.634 1427.339 1131.705 1429.771 C 1131.777 1432.203 1131.658 1434.711 1131.376 1437.254 C 1131.093 1439.797 1131.053 1442.236 1131.244 1444.605 C 1131.435 1446.975 1131.862 1449.26 1132.497 1451.462 C 1133.131 1453.664 1133.987 1455.784 1135.035 1457.824 C 1136.083 1459.865 1137.328 1461.84 1138.76 1463.725 C 1140.192 1465.61 1141.82 1467.428 1143.606 1469.164 C 1145.391 1470.9 1147.331 1472.549 1149.44 1474.142 C 1151.55 1475.734 1153.828 1477.268 1156.231 1478.724 C 1158.634 1480.179 1161.179 1481.553 1163.846 1482.877 C 1166.513 1484.202 1169.286 1485.469 1172.186 1486.668 C 1175.086 1487.868 1178.114 1489.016 1181.218 1490.097 C 1187.427 1492.258 1193.989 1494.177 1200.832 1495.898 C 1207.676 1497.62 1214.79 1499.149 1222.029 1500.48 C 1229.267 1501.812 1236.656 1502.953 1244.049 1503.942 C 1251.443 1504.931 1258.827 1505.752 1266.135 1506.447 C 1273.444 1507.142 1280.677 1507.711 1287.661 1508.161 C 1288.383 1508.208 1288.922 1508.183 1289.639 1508.227 C 1354.874 1488.104 1407.418 1456.641 1435.97 1407.19 C 1448.618 1383.475 1455.781 1356.367 1455.781 1327.613 C 1455.781 1234.124 1380.029 1158.34 1286.541 1158.34 L 1286.541 1158.34 Z" id="path-2" style="stroke-width: 0; fill: rgb(125, 187, 206);" transform="matrix(0.48481, 0.87462, -0.87462, 0.48481, 1822.738561, -427.83003)" bx:origin="0.5 0.5"/>
  </g>
  <g transform="matrix(1, 0, 0, 1, -10, -47)">
    <path label="Camada 1" d="M 960.117 1404.112 C 959.4 1404.068 958.861 1404.093 958.139 1404.047 C 951.155 1403.596 943.922 1403.028 936.613 1402.333 C 929.305 1401.637 921.921 1400.816 914.527 1399.827 C 907.134 1398.838 899.745 1397.697 892.507 1396.366 C 885.268 1395.035 878.154 1393.506 871.31 1391.784 C 864.467 1390.062 857.905 1388.143 851.696 1385.982 C 848.592 1384.902 845.564 1383.753 842.664 1382.554 C 839.764 1381.354 836.991 1380.087 834.324 1378.763 C 831.657 1377.438 829.112 1376.065 826.709 1374.609 C 824.306 1373.154 822.028 1371.62 819.918 1370.027 C 817.809 1368.435 815.869 1366.785 814.084 1365.05 C 812.298 1363.314 810.67 1361.496 809.238 1359.61 L 805.513 1353.71 C 804.465 1351.669 803.609 1349.549 802.975 1347.348 C 802.34 1345.146 801.913 1342.86 801.722 1340.491 C 801.531 1338.121 801.571 1335.683 801.854 1333.14 C 802.136 1330.597 802.255 1328.089 802.183 1325.657 C 802.112 1323.225 801.861 1320.86 801.458 1318.536 C 801.055 1316.213 800.489 1313.962 799.777 1311.746 C 799.065 1309.529 798.205 1307.363 797.206 1305.252 C 796.207 1303.14 795.074 1301.063 793.81 1299.054 C 792.546 1297.045 791.163 1295.095 789.657 1293.187 C 788.15 1291.278 786.505 1289.425 784.778 1287.616 C 783.051 1285.806 781.231 1284.021 779.306 1282.308 C 777.381 1280.595 775.374 1278.949 773.273 1277.331 C 771.173 1275.712 768.968 1274.142 766.713 1272.617 C 765.778 1271.983 764.706 1271.454 763.747 1270.836 C 729.737 1346.407 675.52 1393.213 564.08 1413.969 C 545.829 1417.368 551.852 1439.616 564.08 1439.616 C 695.659 1439.616 847.026 1438.997 960.117 1404.113 L 960.117 1404.112 Z" id="path-3" style="stroke-width: 0; fill: rgb(45, 84, 35);" transform="matrix(-0.499999, 0.866026, -0.866026, -0.499999, 2303.119867, 1380.743489)" bx:origin="0.5 0.5"/>
    <path label="Camada 1" d="M 778.143 1409.614 C 694.957 1409.614 625.775 1469.606 611.539 1548.692 C 603.868 1577.323 595.284 1603.087 584.871 1626.225 C 585.83 1626.843 586.902 1627.372 587.837 1628.005 C 590.092 1629.531 592.297 1631.101 594.397 1632.719 C 596.498 1634.337 598.505 1635.984 600.43 1637.697 C 602.355 1639.41 604.175 1641.194 605.902 1643.004 C 607.629 1644.814 609.274 1646.667 610.781 1648.575 C 612.287 1650.483 613.67 1652.434 614.934 1654.443 C 616.198 1656.452 617.331 1658.528 618.33 1660.64 C 619.329 1662.752 620.189 1664.918 620.901 1667.134 C 621.613 1669.351 622.179 1671.602 622.582 1673.925 C 622.985 1676.248 623.236 1678.613 623.307 1681.045 C 623.379 1683.477 623.26 1685.985 622.978 1688.528 C 622.695 1691.071 622.655 1693.51 622.846 1695.879 C 623.037 1698.249 623.464 1700.534 624.099 1702.736 C 624.733 1704.938 625.589 1707.058 626.637 1709.098 C 627.685 1711.139 628.93 1713.114 630.362 1714.999 C 631.794 1716.884 633.422 1718.702 635.208 1720.438 C 636.993 1722.174 638.933 1723.823 641.042 1725.416 C 643.152 1727.008 645.43 1728.542 647.833 1729.998 C 650.236 1731.453 652.781 1732.827 655.448 1734.151 C 658.115 1735.476 660.888 1736.743 663.788 1737.942 C 666.688 1739.142 669.716 1740.29 672.82 1741.371 C 679.029 1743.532 685.591 1745.451 692.434 1747.172 C 699.278 1748.894 706.392 1750.423 713.631 1751.754 C 720.869 1753.086 728.258 1754.227 735.651 1755.216 C 743.045 1756.205 750.429 1757.026 757.737 1757.721 C 765.046 1758.416 772.279 1758.985 779.263 1759.435 C 779.985 1759.482 780.524 1759.457 781.241 1759.501 C 846.476 1739.378 899.02 1707.915 927.572 1658.464 C 940.22 1634.749 947.383 1607.641 947.383 1578.887 C 947.383 1485.398 871.631 1409.614 778.143 1409.614 L 778.143 1409.614 Z" id="path-4" style="stroke-width: 0; fill: rgb(68, 247, 71);" transform="matrix(-0.499999, 0.866026, -0.866026, -0.499999, 2521.457632, 1713.349443)" bx:origin="0.5 0.5"/>
  </g>
  <g transform="matrix(1, 0, 0, 1, 36, -39)">
    <path label="Camada 1" d="M 665.18 1204.232 C 664.463 1204.188 663.924 1204.213 663.202 1204.167 C 656.218 1203.716 648.985 1203.148 641.676 1202.453 C 634.368 1201.757 626.984 1200.936 619.59 1199.947 C 612.197 1198.958 604.808 1197.817 597.57 1196.486 C 590.331 1195.155 583.217 1193.626 576.373 1191.904 C 569.53 1190.182 562.968 1188.263 556.759 1186.102 C 553.655 1185.022 550.627 1183.873 547.727 1182.674 C 544.827 1181.474 542.054 1180.207 539.387 1178.883 C 536.72 1177.558 534.175 1176.185 531.772 1174.729 C 529.369 1173.274 527.091 1171.74 524.981 1170.147 C 522.872 1168.555 520.932 1166.905 519.147 1165.17 C 517.361 1163.434 515.733 1161.616 514.301 1159.73 L 510.576 1153.83 C 509.528 1151.789 508.672 1149.669 508.038 1147.468 C 507.403 1145.266 506.976 1142.98 506.785 1140.611 C 506.594 1138.241 506.634 1135.803 506.917 1133.26 C 507.199 1130.717 507.318 1128.209 507.246 1125.777 C 507.175 1123.345 506.924 1120.98 506.521 1118.656 C 506.118 1116.333 505.552 1114.082 504.84 1111.866 C 504.128 1109.649 503.268 1107.483 502.269 1105.372 C 501.27 1103.26 500.137 1101.183 498.873 1099.174 C 497.609 1097.165 496.226 1095.215 494.72 1093.307 C 493.213 1091.398 491.568 1089.545 489.841 1087.736 C 488.114 1085.926 486.294 1084.141 484.369 1082.428 C 482.444 1080.715 480.437 1079.069 478.336 1077.451 C 476.236 1075.832 474.031 1074.262 471.776 1072.737 C 470.841 1072.103 469.769 1071.574 468.81 1070.956 C 434.8 1146.527 380.583 1193.333 269.142 1214.089 C 250.891 1217.488 256.914 1239.736 269.142 1239.736 C 400.722 1239.736 552.089 1239.117 665.18 1204.233 L 665.18 1204.232 Z" id="path-5" style="stroke-width: 0; fill: rgb(95, 16, 16);" transform="matrix(-1, 0, 0, -1, 916.071094, 2310.691981)" bx:origin="0.5 0.5"/>
    <path label="Camada 1" d="M 278.021 1106.46 C 194.835 1106.46 125.653 1166.452 111.417 1245.538 C 103.746 1274.169 95.162 1299.933 84.749 1323.071 C 85.708 1323.689 86.78 1324.218 87.715 1324.851 C 89.97 1326.377 92.175 1327.947 94.275 1329.565 C 96.376 1331.183 98.383 1332.83 100.308 1334.543 C 102.233 1336.256 104.053 1338.04 105.78 1339.85 C 107.507 1341.66 109.152 1343.513 110.659 1345.421 C 112.165 1347.329 113.548 1349.28 114.812 1351.289 C 116.076 1353.298 117.209 1355.374 118.208 1357.486 C 119.207 1359.598 120.067 1361.764 120.779 1363.98 C 121.491 1366.197 122.057 1368.448 122.46 1370.771 C 122.863 1373.094 123.114 1375.459 123.185 1377.891 C 123.257 1380.323 123.138 1382.831 122.856 1385.374 C 122.573 1387.917 122.533 1390.356 122.724 1392.725 C 122.915 1395.095 123.342 1397.38 123.977 1399.582 C 124.611 1401.784 125.467 1403.904 126.515 1405.944 C 127.563 1407.985 128.808 1409.96 130.24 1411.845 C 131.672 1413.73 133.3 1415.548 135.086 1417.284 C 136.871 1419.02 138.811 1420.669 140.92 1422.262 C 143.03 1423.854 145.308 1425.388 147.711 1426.844 C 150.114 1428.299 152.659 1429.673 155.326 1430.997 C 157.993 1432.322 160.766 1433.589 163.666 1434.788 C 166.566 1435.988 169.594 1437.136 172.698 1438.217 C 178.907 1440.378 185.469 1442.297 192.312 1444.018 C 199.156 1445.74 206.27 1447.269 213.509 1448.6 C 220.747 1449.932 228.136 1451.073 235.529 1452.062 C 242.923 1453.051 250.307 1453.872 257.615 1454.567 C 264.924 1455.262 272.157 1455.831 279.141 1456.281 C 279.863 1456.328 280.402 1456.303 281.119 1456.347 C 346.355 1436.224 398.899 1404.761 427.451 1355.31 C 440.099 1331.595 447.262 1304.487 447.262 1275.733 C 447.262 1182.244 371.509 1106.46 278.021 1106.46 L 278.021 1106.46 Z" id="path-6" style="stroke-width: 0; fill: rgb(255, 60, 60);" transform="matrix(-1, 0, 0, -1, 532.010938, 2562.807024)" bx:origin="0.5 0.5"/>
  </g>
  <g transform="matrix(1, 0, 0, 1, 56, 21)">
    <path label="Camada 1" d="M 695.628 832.506 C 694.911 832.462 694.372 832.487 693.65 832.441 C 686.666 831.99 679.433 831.422 672.124 830.727 C 664.816 830.031 657.432 829.21 650.038 828.221 C 642.645 827.232 635.256 826.091 628.018 824.76 C 620.779 823.429 613.665 821.9 606.821 820.178 C 599.978 818.456 593.416 816.537 587.207 814.376 C 584.103 813.296 581.075 812.147 578.175 810.948 C 575.275 809.748 572.502 808.481 569.835 807.157 C 567.168 805.832 564.623 804.459 562.22 803.003 C 559.817 801.548 557.539 800.014 555.429 798.421 C 553.32 796.829 551.38 795.179 549.595 793.444 C 547.809 791.708 546.181 789.89 544.749 788.004 L 541.024 782.104 C 539.976 780.063 539.12 777.943 538.486 775.742 C 537.851 773.54 537.424 771.254 537.233 768.885 C 537.042 766.515 537.082 764.077 537.365 761.534 C 537.647 758.991 537.766 756.483 537.694 754.051 C 537.623 751.619 537.372 749.254 536.969 746.93 C 536.566 744.607 536 742.356 535.288 740.14 C 534.576 737.923 533.716 735.757 532.717 733.646 C 531.718 731.534 530.585 729.457 529.321 727.448 C 528.057 725.439 526.674 723.489 525.168 721.581 C 523.661 719.672 522.016 717.819 520.289 716.01 C 518.562 714.2 516.742 712.415 514.817 710.702 C 512.892 708.989 510.885 707.343 508.784 705.725 C 506.684 704.106 504.479 702.536 502.224 701.011 C 501.289 700.377 500.217 699.848 499.258 699.23 C 465.248 774.801 411.031 821.607 299.591 842.363 C 281.34 845.762 287.363 868.01 299.591 868.01 C 431.17 868.01 582.537 867.391 695.628 832.507 L 695.628 832.506 Z" id="path-7" style="stroke-width: 0; fill: rgb(36, 46, 82);" transform="matrix(-0.515037, -0.857168, 0.857168, -0.515037, 68.377638, 1605.926248)" bx:origin="0.5 0.5"/>
    <path label="Camada 1" d="M 293.545 508.999 C 210.358 508.999 141.176 568.991 126.94 648.077 C 119.269 676.708 110.685 702.472 100.272 725.61 C 101.231 726.228 102.303 726.757 103.238 727.39 C 105.493 728.916 107.698 730.486 109.798 732.104 C 111.899 733.722 113.906 735.369 115.831 737.082 C 117.756 738.795 119.576 740.579 121.303 742.389 C 123.03 744.199 124.675 746.052 126.182 747.96 C 127.688 749.868 129.071 751.819 130.335 753.828 C 131.599 755.837 132.732 757.913 133.731 760.025 C 134.73 762.137 135.59 764.303 136.302 766.519 C 137.014 768.736 137.58 770.987 137.983 773.31 C 138.386 775.633 138.637 777.998 138.708 780.43 C 138.78 782.862 138.661 785.37 138.379 787.913 C 138.096 790.456 138.056 792.895 138.247 795.264 C 138.438 797.634 138.865 799.919 139.5 802.121 C 140.134 804.323 140.99 806.443 142.038 808.483 C 143.086 810.524 144.331 812.499 145.763 814.384 C 147.195 816.269 148.823 818.087 150.609 819.823 C 152.394 821.559 154.334 823.208 156.443 824.801 C 158.553 826.393 160.831 827.927 163.234 829.383 C 165.637 830.838 168.182 832.212 170.849 833.536 C 173.516 834.861 176.289 836.128 179.189 837.327 C 182.089 838.527 185.117 839.675 188.221 840.756 C 194.43 842.917 200.992 844.836 207.835 846.557 C 214.679 848.279 221.793 849.808 229.032 851.139 C 236.27 852.471 243.659 853.612 251.052 854.601 C 258.446 855.59 265.83 856.411 273.138 857.106 C 280.447 857.801 287.68 858.37 294.664 858.82 C 295.386 858.867 295.925 858.842 296.642 858.886 C 361.878 838.763 414.422 807.3 442.974 757.849 C 455.622 734.134 462.785 707.026 462.785 678.272 C 462.785 584.783 387.033 508.999 293.545 508.999 L 293.545 508.999 Z" id="path-8" style="stroke-width: 0; fill: rgb(125, 187, 206);" transform="matrix(-0.515038, -0.857168, 0.857168, -0.515038, -159.727043, 1277.515753)" bx:origin="0.5 0.5"/>
  </g>
  <g transform="matrix(1, 0, 0, 1, 0, 54)">
    <path label="Camada 1" d="M 1051.741 692.732 C 1051.024 692.688 1050.485 692.713 1049.763 692.667 C 1042.779 692.216 1035.546 691.648 1028.237 690.953 C 1020.929 690.257 1013.545 689.436 1006.151 688.447 C 998.758 687.458 991.369 686.317 984.131 684.986 C 976.892 683.655 969.778 682.126 962.934 680.404 C 956.091 678.682 949.529 676.763 943.32 674.602 C 940.216 673.522 937.188 672.373 934.288 671.174 C 931.388 669.974 928.615 668.707 925.948 667.383 C 923.281 666.058 920.736 664.685 918.333 663.229 C 915.93 661.774 913.652 660.24 911.542 658.647 C 909.433 657.055 907.493 655.405 905.708 653.67 C 903.922 651.934 902.294 650.116 900.862 648.23 L 897.137 642.33 C 896.089 640.289 895.233 638.169 894.599 635.968 C 893.964 633.766 893.537 631.48 893.346 629.111 C 893.155 626.741 893.195 624.303 893.478 621.76 C 893.76 619.217 893.879 616.709 893.807 614.277 C 893.736 611.845 893.485 609.48 893.082 607.156 C 892.679 604.833 892.113 602.582 891.401 600.366 C 890.689 598.149 889.829 595.983 888.83 593.872 C 887.831 591.76 886.698 589.683 885.434 587.674 C 884.17 585.665 882.787 583.715 881.281 581.807 C 879.774 579.898 878.129 578.045 876.402 576.236 C 874.675 574.426 872.855 572.641 870.93 570.928 C 869.005 569.215 866.998 567.569 864.897 565.951 C 862.797 564.332 860.592 562.762 858.337 561.237 C 857.402 560.603 856.33 560.074 855.371 559.456 C 821.361 635.027 767.144 681.833 655.703 702.589 C 637.452 705.988 643.476 728.236 655.703 728.236 C 787.283 728.236 938.65 727.617 1051.741 692.733 L 1051.741 692.732 Z" id="path-9" style="stroke-width: 0; fill: rgb(45, 84, 35);" transform="matrix(0.5, -0.866025, 0.866025, 0.5, -135.288787, 1053.364877)" bx:origin="0.5 0.5"/>
    <path label="Camada 1" d="M 843.459 239.571 C 760.273 239.571 691.091 299.563 676.855 378.649 C 669.184 407.28 660.6 433.044 650.187 456.182 C 651.146 456.8 652.218 457.329 653.153 457.962 C 655.408 459.488 657.613 461.058 659.713 462.676 C 661.814 464.294 663.821 465.941 665.746 467.654 C 667.671 469.367 669.491 471.151 671.218 472.961 C 672.945 474.771 674.59 476.624 676.097 478.532 C 677.603 480.44 678.986 482.391 680.25 484.4 C 681.514 486.409 682.647 488.485 683.646 490.597 C 684.645 492.709 685.505 494.875 686.217 497.091 C 686.929 499.308 687.495 501.559 687.898 503.882 C 688.301 506.205 688.552 508.57 688.623 511.002 C 688.695 513.434 688.576 515.942 688.294 518.485 C 688.011 521.028 687.971 523.467 688.162 525.836 C 688.353 528.206 688.78 530.491 689.415 532.693 C 690.049 534.895 690.905 537.015 691.953 539.055 C 693.001 541.096 694.246 543.071 695.678 544.956 C 697.11 546.841 698.738 548.659 700.524 550.395 C 702.309 552.131 704.249 553.78 706.358 555.373 C 708.468 556.965 710.746 558.499 713.149 559.955 C 715.552 561.41 718.097 562.784 720.764 564.108 C 723.431 565.433 726.204 566.7 729.104 567.899 C 732.004 569.099 735.032 570.247 738.136 571.328 C 744.345 573.489 750.907 575.408 757.75 577.129 C 764.594 578.851 771.708 580.38 778.947 581.711 C 786.185 583.043 793.574 584.184 800.967 585.173 C 808.361 586.162 815.745 586.983 823.053 587.678 C 830.362 588.373 837.595 588.942 844.579 589.392 C 845.301 589.439 845.84 589.414 846.557 589.458 C 911.792 569.335 964.336 537.872 992.888 488.421 C 1005.536 464.706 1012.699 437.598 1012.699 408.844 C 1012.699 315.355 936.947 239.571 843.459 239.571 L 843.459 239.571 Z" id="path-10" style="stroke-width: 0; fill: rgb(68, 247, 71);" transform="matrix(0.500001, -0.866025, 0.866025, 0.500001, 56.740985, 927.307419)" bx:origin="0.5 0.5"/>
  </g>
</svg>
